#!OML:ASF X:\für Bonn\!DataBase\2005_08_11_Bastian_Final\c3d\Bastian.ASF
:FULLY-SPECIFIED
:DEGREES
169
root 3.45841 17.0144 -18.5239 154.451 17.9887 -181.765
lowerback 10.6517 -4.23222 -4.26595
upperback 10.0531 -4.69242 -2.37235
thorax 4.78552 -2.00963 0.221205
lowerneck 1.72454 -0.595243 -7.68288
upperneck -1.61771 -0.585165 12.604
head -0.692384 -0.303226 5.059
rclavicle -1.483e-013 -3.97569e-016
rhumerus -54.4846 10.9352 -101.934
rradius 104.154
rwrist 12.4902
rhand -17.5991 9.42858
rfingers 7.12502
rthumb 8.65719 -20.3739
lclavicle -1.483e-013 -3.97569e-016
lhumerus -26.5279 -0.871642 73.8888
lradius 85.3616
lwrist 29.3995
lhand -8.56353 -34.2096
lfingers 7.12502
lthumb 17.3665 -4.96545
rfemur -3.34708 6.41693 23.31
rtibia 44.8514
rfoot -5.51124 0.0651184
rtoes 10.0431
lfemur 16.2699 3.00434 -8.0799
ltibia 64.687
lfoot 9.54662 -0.683408
ltoes -28.6041
170
root 3.38304 16.9935 -18.4336 155.024 18.0288 -181.669
lowerback 10.4956 -4.33814 -4.35924
upperback 9.87997 -4.88359 -2.26278
thorax 4.70898 -2.13146 0.392183
lowerneck 1.22272 -0.498314 -7.50029
upperneck -1.59054 -0.421345 12.5949
head -0.618387 -0.203543 5.02194
rclavicle -4.15165e-014 6.99722e-014
rhumerus -53.9955 10.8919 -102.123
rradius 104.274
rwrist 12.3503
rhand -17.4295 9.61791
rfingers 7.12502
rthumb 8.82086 -20.1777
lclavicle -4.15165e-014 6.99722e-014
lhumerus -26.1827 -1.1893 75.1845
lradius 87.1548
lwrist 29.5817
lhand -8.77343 -33.8806
lfingers 7.12502
lthumb 17.1645 -4.61872
rfemur -4.42257 6.8421 23.2506
rtibia 44.9884
rfoot -5.34213 -0.1981
rtoes 9.58053
lfemur 16.9343 3.31867 -8.00627
ltibia 63.152
lfoot 9.17856 -1.56299
ltoes -30.8766
171
root 3.30624 16.974 -18.3387 155.605 18.0603 -181.582
lowerback 10.3884 -4.43692 -4.43858
upperback 9.70172 -5.06347 -2.17424
thorax 4.59802 -2.24391 0.536325
lowerneck 0.707846 -0.406685 -7.28771
upperneck -1.56368 -0.263583 12.597
head -0.541357 -0.105828 4.98407
rclavicle -1.09682e-013 2.92213e-014
rhumerus -53.5443 10.8573 -102.323
rradius 104.374
rwrist 12.284
rhand -17.3238 9.79917
rfingers 7.12502
rthumb 8.92287 -19.9922
lclavicle -1.09682e-013 2.92213e-014
lhumerus -25.8099 -1.69106 76.4648
lradius 88.9543
lwrist 29.9433
lhand -8.86675 -33.3462
lfingers 7.12502
lthumb 17.0747 -4.0765
rfemur -5.50483 7.2786 23.163
rtibia 45.0889
rfoot -5.18376 -0.476788
rtoes 9.27065
lfemur 17.5243 3.60536 -7.97829
ltibia 61.5711
lfoot 8.45909 -2.36144
ltoes -32.8096
172
root 3.22864 16.9556 -18.2375 156.262 18.0978 -181.47
lowerback 10.2784 -4.51912 -4.51395
upperback 9.49702 -5.22579 -2.06639
thorax 4.46189 -2.34868 0.698162
lowerneck 0.179341 -0.335764 -7.0536
upperneck -1.51856 -0.136423 12.5937
head -0.453343 -0.0221872 4.94181
rclavicle 8.07563e-016 -2.54444e-014
rhumerus -53.1502 10.8498 -102.493
rradius 104.501
rwrist 12.2786
rhand -17.228 10.0026
rfingers 7.12502
rthumb 9.01529 -19.7848
lclavicle 8.07563e-016 -2.54444e-014
lhumerus -25.3767 -2.32315 77.7546
lradius 90.7129
lwrist 30.4329
lhand -8.7685 -32.591
lfingers 7.12502
lthumb 17.1693 -3.32956
rfemur -6.66892 7.75425 23.0875
rtibia 45.1524
rfoot -4.99999 -0.785278
rtoes 8.84144
lfemur 17.9756 3.86902 -7.952
ltibia 59.9636
lfoot 7.2981 -3.07791
ltoes -34.7667
173
root 3.15031 16.9371 -18.1304 156.94 18.1312 -181.345
lowerback 10.1997 -4.60588 -4.6254
upperback 9.29948 -5.39525 -1.92825
thorax 4.32565 -2.45839 0.91304
lowerneck -0.350738 -0.247652 -6.85412
upperneck -1.52348 0.0149684 12.5786
head -0.381704 0.0726844 4.9026
rclavicle 6.78974e-015 -6.75868e-015
rhumerus -52.7773 10.9436 -102.648
rradius 104.661
rwrist 12.339
rhand -17.1747 10.1352
rfingers 7.12502
rthumb 9.06676 -19.65
lclavicle 6.78974e-015 -6.75868e-015
lhumerus -24.863 -3.02211 79.0508
lradius 92.4011
lwrist 31.0171
lhand -8.54821 -31.7747
lfingers 7.12502
lthumb 17.3813 -2.53186
rfemur -7.85814 8.2156 23.0067
rtibia 45.1817
rfoot -4.8102 -1.09287
rtoes 8.23065
lfemur 18.3589 4.10387 -7.94587
ltibia 58.32
lfoot 5.82589 -3.72652
ltoes -36.7643
174
root 3.06971 16.917 -18.0183 157.662 18.1736 -181.193
lowerback 10.1403 -4.67337 -4.65163
upperback 9.09415 -5.53288 -1.82058
thorax 4.15746 -2.54492 1.05038
lowerneck -0.914796 -0.191407 -6.55115
upperneck -1.48494 0.120324 12.5468
head -0.286948 0.147334 4.84153
rclavicle 6.74874e-014 -8.84592e-015
rhumerus -52.434 10.9974 -102.851
rradius 104.84
rwrist 12.5112
rhand -17.1438 10.2594
rfingers 7.12502
rthumb 9.09657 -19.5244
lclavicle 6.74874e-014 -8.84592e-015
lhumerus -24.2775 -3.90271 80.2836
lradius 93.9982
lwrist 31.6599
lhand -8.09431 -30.9181
lfingers 7.12502
lthumb 17.8181 -1.71437
rfemur -9.10881 8.66162 22.9279
rtibia 45.2038
rfoot -4.60093 -1.36409
rtoes 7.43679
lfemur 18.6691 4.35807 -7.91081
ltibia 56.6393
lfoot 4.15179 -4.43228
ltoes -38.5342
175
root 2.9877 16.8937 -17.9021 158.407 18.219 -181.033
lowerback 10.0859 -4.74714 -4.69297
upperback 8.91136 -5.67483 -1.69741
thorax 4.01575 -2.63335 1.21141
lowerneck -1.52056 -0.128946 -6.25638
upperneck -1.4878 0.237166 12.5197
head -0.198056 0.228888 4.78426
rclavicle 3.02184e-014 -8.64713e-015
rhumerus -52.0308 11.2464 -103.006
rradius 105.031
rwrist 12.5661
rhand -17.1528 10.38
rfingers 7.12502
rthumb 9.08795 -19.4042
lclavicle 3.02184e-014 -8.64713e-015
lhumerus -23.6625 -4.80651 81.5234
lradius 95.5713
lwrist 32.3249
lhand -7.42033 -30.1274
lfingers 7.12502
lthumb 18.4665 -0.983955
rfemur -10.396 9.11318 22.8371
rtibia 45.2225
rfoot -4.38026 -1.6343
rtoes 6.51599
lfemur 18.9263 4.60148 -7.91401
ltibia 54.91
lfoot 2.22329 -5.16748
ltoes -40.6168
176
root 2.90357 16.8645 -17.7812 159.18 18.2767 -180.873
lowerback 10.0056 -4.81679 -4.71467
upperback 8.75392 -5.803 -1.59068
thorax 3.91161 -2.71216 1.34072
lowerneck -2.17956 -0.0712598 -5.92324
upperneck -1.48668 0.345896 12.478
head -0.0980627 0.308824 4.71704
rclavicle 2.77522e-014 4.17448e-015
rhumerus -51.591 11.6066 -103.154
rradius 105.212
rwrist 12.6309
rhand -17.247 10.4576
rfingers 7.12502
rthumb 8.99698 -19.3305
lclavicle 2.77522e-014 4.17448e-015
lhumerus -23.0136 -5.81517 82.7092
lradius 97.0543
lwrist 32.8844
lhand -6.63575 -29.5268
lfingers 7.12502
lthumb 19.2211 -0.456641
rfemur -11.7589 9.54961 22.7159
rtibia 45.2656
rfoot -4.14095 -1.88445
rtoes 5.51793
lfemur 19.1288 4.86022 -7.93408
ltibia 53.1202
lfoot 0.0387216 -5.83618
ltoes -42.5696
